<mxfile host="app.diagrams.net" modified="2024-04-16T09:14:24.525Z" agent="Mozilla/5.0 (Windows NT 10.0; Win64; x64) AppleWebKit/537.36 (KHTML, like Gecko) Chrome/123.0.0.0 Safari/537.36" etag="n_VTMqtdY_jNcwH_6mDO" version="24.2.5" type="google" pages="3">
  <diagram name="‫עמוד-1‬" id="vnPmC6Hj0ANCb9C7g-GF">
    <mxGraphModel dx="1290" dy="522" grid="1" gridSize="10" guides="1" tooltips="1" connect="1" arrows="1" fold="1" page="1" pageScale="1" pageWidth="827" pageHeight="1169" math="0" shadow="0">
      <root>
        <mxCell id="0" />
        <mxCell id="1" parent="0" />
        <mxCell id="5YwmjccmEtclztH1JFm8-7" value="" style="edgeStyle=orthogonalEdgeStyle;rounded=0;orthogonalLoop=1;jettySize=auto;html=1;" parent="1" source="5YwmjccmEtclztH1JFm8-1" target="5YwmjccmEtclztH1JFm8-6" edge="1">
          <mxGeometry relative="1" as="geometry" />
        </mxCell>
        <mxCell id="5YwmjccmEtclztH1JFm8-1" value="start" style="rounded=0;whiteSpace=wrap;html=1;" parent="1" vertex="1">
          <mxGeometry x="350" y="10" width="120" height="60" as="geometry" />
        </mxCell>
        <mxCell id="5YwmjccmEtclztH1JFm8-10" value="" style="edgeStyle=orthogonalEdgeStyle;rounded=0;orthogonalLoop=1;jettySize=auto;html=1;" parent="1" source="5YwmjccmEtclztH1JFm8-6" target="5YwmjccmEtclztH1JFm8-9" edge="1">
          <mxGeometry relative="1" as="geometry" />
        </mxCell>
        <mxCell id="5YwmjccmEtclztH1JFm8-12" style="edgeStyle=orthogonalEdgeStyle;rounded=0;orthogonalLoop=1;jettySize=auto;html=1;" parent="1" source="5YwmjccmEtclztH1JFm8-6" target="5YwmjccmEtclztH1JFm8-11" edge="1">
          <mxGeometry relative="1" as="geometry" />
        </mxCell>
        <UserObject label="choose player" link="data:page/id,HFJknNNAJ5EQAEu7Tkad" id="5YwmjccmEtclztH1JFm8-6">
          <mxCell style="rhombus;whiteSpace=wrap;html=1;rounded=0;" parent="1" vertex="1">
            <mxGeometry x="360" y="120" width="100" height="100" as="geometry" />
          </mxCell>
        </UserObject>
        <mxCell id="5YwmjccmEtclztH1JFm8-14" value="" style="edgeStyle=orthogonalEdgeStyle;rounded=0;orthogonalLoop=1;jettySize=auto;html=1;" parent="1" source="5YwmjccmEtclztH1JFm8-9" target="5YwmjccmEtclztH1JFm8-13" edge="1">
          <mxGeometry relative="1" as="geometry" />
        </mxCell>
        <mxCell id="5YwmjccmEtclztH1JFm8-9" value="x" style="ellipse;whiteSpace=wrap;html=1;rounded=0;" parent="1" vertex="1">
          <mxGeometry x="510" y="130" width="80" height="80" as="geometry" />
        </mxCell>
        <mxCell id="5YwmjccmEtclztH1JFm8-11" value="o" style="ellipse;whiteSpace=wrap;html=1;rounded=0;" parent="1" vertex="1">
          <mxGeometry x="230" y="130" width="80" height="80" as="geometry" />
        </mxCell>
        <mxCell id="5YwmjccmEtclztH1JFm8-20" value="" style="edgeStyle=orthogonalEdgeStyle;rounded=0;orthogonalLoop=1;jettySize=auto;html=1;" parent="1" source="5YwmjccmEtclztH1JFm8-13" target="5YwmjccmEtclztH1JFm8-19" edge="1">
          <mxGeometry relative="1" as="geometry" />
        </mxCell>
        <mxCell id="5YwmjccmEtclztH1JFm8-24" value="" style="edgeStyle=orthogonalEdgeStyle;rounded=0;orthogonalLoop=1;jettySize=auto;html=1;" parent="1" source="5YwmjccmEtclztH1JFm8-13" target="5YwmjccmEtclztH1JFm8-23" edge="1">
          <mxGeometry relative="1" as="geometry" />
        </mxCell>
        <mxCell id="5YwmjccmEtclztH1JFm8-31" style="edgeStyle=orthogonalEdgeStyle;rounded=0;orthogonalLoop=1;jettySize=auto;html=1;entryX=0;entryY=0.5;entryDx=0;entryDy=0;" parent="1" source="5YwmjccmEtclztH1JFm8-13" target="5YwmjccmEtclztH1JFm8-27" edge="1">
          <mxGeometry relative="1" as="geometry" />
        </mxCell>
        <UserObject label="make move" link="data:page/id,QdwsYnYISWpcQ5v2HpTM" id="5YwmjccmEtclztH1JFm8-13">
          <mxCell style="whiteSpace=wrap;html=1;rounded=0;" parent="1" vertex="1">
            <mxGeometry x="490" y="250" width="120" height="60" as="geometry" />
          </mxCell>
        </UserObject>
        <mxCell id="5YwmjccmEtclztH1JFm8-28" value="" style="edgeStyle=orthogonalEdgeStyle;rounded=0;orthogonalLoop=1;jettySize=auto;html=1;" parent="1" source="5YwmjccmEtclztH1JFm8-15" target="5YwmjccmEtclztH1JFm8-23" edge="1">
          <mxGeometry relative="1" as="geometry" />
        </mxCell>
        <UserObject label="make move" link="data:page/id,QdwsYnYISWpcQ5v2HpTM" id="5YwmjccmEtclztH1JFm8-15">
          <mxCell style="whiteSpace=wrap;html=1;rounded=0;" parent="1" vertex="1">
            <mxGeometry x="210" y="250" width="120" height="60" as="geometry" />
          </mxCell>
        </UserObject>
        <mxCell id="5YwmjccmEtclztH1JFm8-16" value="" style="edgeStyle=orthogonalEdgeStyle;rounded=0;orthogonalLoop=1;jettySize=auto;html=1;" parent="1" target="5YwmjccmEtclztH1JFm8-15" edge="1">
          <mxGeometry relative="1" as="geometry">
            <mxPoint x="270" y="210" as="sourcePoint" />
          </mxGeometry>
        </mxCell>
        <mxCell id="5YwmjccmEtclztH1JFm8-38" value="" style="edgeStyle=orthogonalEdgeStyle;rounded=0;orthogonalLoop=1;jettySize=auto;html=1;" parent="1" source="5YwmjccmEtclztH1JFm8-19" target="5YwmjccmEtclztH1JFm8-37" edge="1">
          <mxGeometry relative="1" as="geometry" />
        </mxCell>
        <mxCell id="5YwmjccmEtclztH1JFm8-19" value="rote" style="whiteSpace=wrap;html=1;rounded=0;" parent="1" vertex="1">
          <mxGeometry x="490" y="340" width="120" height="60" as="geometry" />
        </mxCell>
        <mxCell id="5YwmjccmEtclztH1JFm8-21" value="rote" style="whiteSpace=wrap;html=1;rounded=0;" parent="1" vertex="1">
          <mxGeometry x="210" y="340" width="120" height="60" as="geometry" />
        </mxCell>
        <mxCell id="5YwmjccmEtclztH1JFm8-22" value="" style="edgeStyle=orthogonalEdgeStyle;rounded=0;orthogonalLoop=1;jettySize=auto;html=1;" parent="1" target="5YwmjccmEtclztH1JFm8-21" edge="1">
          <mxGeometry relative="1" as="geometry">
            <mxPoint x="270" y="310" as="sourcePoint" />
          </mxGeometry>
        </mxCell>
        <mxCell id="5YwmjccmEtclztH1JFm8-23" value="you can&#39;t" style="ellipse;whiteSpace=wrap;html=1;rounded=0;" parent="1" vertex="1">
          <mxGeometry x="70" y="240" width="80" height="80" as="geometry" />
        </mxCell>
        <mxCell id="5YwmjccmEtclztH1JFm8-27" value="you can&#39;t" style="ellipse;whiteSpace=wrap;html=1;rounded=0;" parent="1" vertex="1">
          <mxGeometry x="680" y="240" width="80" height="80" as="geometry" />
        </mxCell>
        <mxCell id="5YwmjccmEtclztH1JFm8-33" value="" style="shape=flexArrow;endArrow=classic;html=1;rounded=0;entryX=0;entryY=1;entryDx=0;entryDy=0;exitX=0.61;exitY=1.035;exitDx=0;exitDy=0;exitPerimeter=0;" parent="1" source="5YwmjccmEtclztH1JFm8-23" target="5YwmjccmEtclztH1JFm8-15" edge="1">
          <mxGeometry width="50" height="50" relative="1" as="geometry">
            <mxPoint x="110" y="340" as="sourcePoint" />
            <mxPoint x="160" y="290" as="targetPoint" />
            <Array as="points">
              <mxPoint x="150" y="360" />
            </Array>
          </mxGeometry>
        </mxCell>
        <mxCell id="5YwmjccmEtclztH1JFm8-34" value="" style="shape=flexArrow;endArrow=classic;html=1;rounded=0;exitX=0.295;exitY=1.035;exitDx=0;exitDy=0;exitPerimeter=0;entryX=1.073;entryY=1.067;entryDx=0;entryDy=0;entryPerimeter=0;" parent="1" source="5YwmjccmEtclztH1JFm8-27" target="5YwmjccmEtclztH1JFm8-13" edge="1">
          <mxGeometry width="50" height="50" relative="1" as="geometry">
            <mxPoint x="600" y="305" as="sourcePoint" />
            <mxPoint x="650" y="255" as="targetPoint" />
            <Array as="points">
              <mxPoint x="670" y="350" />
            </Array>
          </mxGeometry>
        </mxCell>
        <mxCell id="5YwmjccmEtclztH1JFm8-42" value="" style="edgeStyle=orthogonalEdgeStyle;rounded=0;orthogonalLoop=1;jettySize=auto;html=1;" parent="1" source="5YwmjccmEtclztH1JFm8-37" target="5YwmjccmEtclztH1JFm8-41" edge="1">
          <mxGeometry relative="1" as="geometry" />
        </mxCell>
        <mxCell id="5YwmjccmEtclztH1JFm8-46" value="" style="edgeStyle=orthogonalEdgeStyle;rounded=0;orthogonalLoop=1;jettySize=auto;html=1;" parent="1" source="5YwmjccmEtclztH1JFm8-37" target="5YwmjccmEtclztH1JFm8-45" edge="1">
          <mxGeometry relative="1" as="geometry" />
        </mxCell>
        <mxCell id="5YwmjccmEtclztH1JFm8-37" value="do you have 3?" style="shape=hexagon;perimeter=hexagonPerimeter2;whiteSpace=wrap;html=1;fixedSize=1;rounded=0;" parent="1" vertex="1">
          <mxGeometry x="490" y="430" width="120" height="80" as="geometry" />
        </mxCell>
        <mxCell id="5YwmjccmEtclztH1JFm8-39" value="" style="edgeStyle=orthogonalEdgeStyle;rounded=0;orthogonalLoop=1;jettySize=auto;html=1;" parent="1" target="5YwmjccmEtclztH1JFm8-40" edge="1">
          <mxGeometry relative="1" as="geometry">
            <mxPoint x="270" y="400" as="sourcePoint" />
          </mxGeometry>
        </mxCell>
        <mxCell id="5YwmjccmEtclztH1JFm8-40" value="do you have 3?" style="shape=hexagon;perimeter=hexagonPerimeter2;whiteSpace=wrap;html=1;fixedSize=1;rounded=0;" parent="1" vertex="1">
          <mxGeometry x="210" y="430" width="120" height="80" as="geometry" />
        </mxCell>
        <mxCell id="5YwmjccmEtclztH1JFm8-41" value="yes" style="shape=trapezoid;perimeter=trapezoidPerimeter;whiteSpace=wrap;html=1;fixedSize=1;rounded=0;" parent="1" vertex="1">
          <mxGeometry x="420" y="555" width="120" height="60" as="geometry" />
        </mxCell>
        <mxCell id="5YwmjccmEtclztH1JFm8-45" value="no" style="shape=trapezoid;perimeter=trapezoidPerimeter;whiteSpace=wrap;html=1;fixedSize=1;rounded=0;" parent="1" vertex="1">
          <mxGeometry x="580" y="555" width="120" height="60" as="geometry" />
        </mxCell>
        <mxCell id="5YwmjccmEtclztH1JFm8-59" value="" style="edgeStyle=orthogonalEdgeStyle;rounded=0;orthogonalLoop=1;jettySize=auto;html=1;" parent="1" source="5YwmjccmEtclztH1JFm8-47" target="5YwmjccmEtclztH1JFm8-58" edge="1">
          <mxGeometry relative="1" as="geometry" />
        </mxCell>
        <mxCell id="5YwmjccmEtclztH1JFm8-47" value="no" style="shape=trapezoid;perimeter=trapezoidPerimeter;whiteSpace=wrap;html=1;fixedSize=1;rounded=0;" parent="1" vertex="1">
          <mxGeometry x="280" y="555" width="120" height="60" as="geometry" />
        </mxCell>
        <mxCell id="5YwmjccmEtclztH1JFm8-48" value="" style="edgeStyle=orthogonalEdgeStyle;rounded=0;orthogonalLoop=1;jettySize=auto;html=1;" parent="1" target="5YwmjccmEtclztH1JFm8-47" edge="1">
          <mxGeometry relative="1" as="geometry">
            <mxPoint x="250" y="510" as="sourcePoint" />
            <Array as="points">
              <mxPoint x="250" y="511" />
              <mxPoint x="340" y="511" />
            </Array>
          </mxGeometry>
        </mxCell>
        <mxCell id="5YwmjccmEtclztH1JFm8-53" value="" style="edgeStyle=orthogonalEdgeStyle;rounded=0;orthogonalLoop=1;jettySize=auto;html=1;" parent="1" source="5YwmjccmEtclztH1JFm8-49" target="5YwmjccmEtclztH1JFm8-52" edge="1">
          <mxGeometry relative="1" as="geometry" />
        </mxCell>
        <mxCell id="5YwmjccmEtclztH1JFm8-49" value="yes" style="shape=trapezoid;perimeter=trapezoidPerimeter;whiteSpace=wrap;html=1;fixedSize=1;rounded=0;" parent="1" vertex="1">
          <mxGeometry x="120" y="555" width="120" height="60" as="geometry" />
        </mxCell>
        <mxCell id="5YwmjccmEtclztH1JFm8-50" value="" style="edgeStyle=orthogonalEdgeStyle;rounded=0;orthogonalLoop=1;jettySize=auto;html=1;" parent="1" target="5YwmjccmEtclztH1JFm8-49" edge="1">
          <mxGeometry relative="1" as="geometry">
            <mxPoint x="250" y="510" as="sourcePoint" />
            <Array as="points">
              <mxPoint x="250" y="511" />
              <mxPoint x="180" y="511" />
            </Array>
          </mxGeometry>
        </mxCell>
        <mxCell id="5YwmjccmEtclztH1JFm8-52" value="you won" style="rhombus;whiteSpace=wrap;html=1;rounded=0;" parent="1" vertex="1">
          <mxGeometry x="140" y="650" width="80" height="80" as="geometry" />
        </mxCell>
        <mxCell id="5YwmjccmEtclztH1JFm8-56" value="" style="edgeStyle=orthogonalEdgeStyle;rounded=0;orthogonalLoop=1;jettySize=auto;html=1;" parent="1" target="5YwmjccmEtclztH1JFm8-57" edge="1">
          <mxGeometry relative="1" as="geometry">
            <mxPoint x="480" y="615" as="sourcePoint" />
          </mxGeometry>
        </mxCell>
        <mxCell id="5YwmjccmEtclztH1JFm8-57" value="you won" style="rhombus;whiteSpace=wrap;html=1;rounded=0;" parent="1" vertex="1">
          <mxGeometry x="440" y="650" width="80" height="80" as="geometry" />
        </mxCell>
        <mxCell id="5YwmjccmEtclztH1JFm8-58" value="next torn" style="ellipse;whiteSpace=wrap;html=1;rounded=0;" parent="1" vertex="1">
          <mxGeometry x="300" y="650" width="80" height="80" as="geometry" />
        </mxCell>
        <mxCell id="5YwmjccmEtclztH1JFm8-60" value="next torn" style="ellipse;whiteSpace=wrap;html=1;rounded=0;" parent="1" vertex="1">
          <mxGeometry x="600" y="650" width="80" height="80" as="geometry" />
        </mxCell>
        <mxCell id="5YwmjccmEtclztH1JFm8-61" value="" style="edgeStyle=orthogonalEdgeStyle;rounded=0;orthogonalLoop=1;jettySize=auto;html=1;" parent="1" target="5YwmjccmEtclztH1JFm8-60" edge="1">
          <mxGeometry relative="1" as="geometry">
            <mxPoint x="640" y="615" as="sourcePoint" />
          </mxGeometry>
        </mxCell>
      </root>
    </mxGraphModel>
  </diagram>
  <diagram id="HFJknNNAJ5EQAEu7Tkad" name="‫עמוד-2‬">
    <mxGraphModel grid="1" page="1" gridSize="10" guides="1" tooltips="1" connect="1" arrows="1" fold="1" pageScale="1" pageWidth="827" pageHeight="1169" math="0" shadow="0">
      <root>
        <mxCell id="0" />
        <mxCell id="1" parent="0" />
        <mxCell id="OoPUK339M9w50Y1PaUf0-1" value="פונקציה של בחירת משתמש" style="whiteSpace=wrap;html=1;aspect=fixed;" vertex="1" parent="1">
          <mxGeometry x="370" y="230" width="80" height="80" as="geometry" />
        </mxCell>
      </root>
    </mxGraphModel>
  </diagram>
  <diagram id="QdwsYnYISWpcQ5v2HpTM" name="‫עמוד-3‬">
    <mxGraphModel grid="1" page="1" gridSize="10" guides="1" tooltips="1" connect="1" arrows="1" fold="1" pageScale="1" pageWidth="827" pageHeight="1169" math="0" shadow="0">
      <root>
        <mxCell id="0" />
        <mxCell id="1" parent="0" />
        <mxCell id="_kSIUYw7mNd-r5VIrAmw-1" value="פונקציה אם המשבצת פנויה או לא.&lt;div&gt;אם כן - לשמור אותה&lt;/div&gt;&lt;div&gt;אם לא - לבחור מהלך אחר&lt;/div&gt;" style="whiteSpace=wrap;html=1;aspect=fixed;" vertex="1" parent="1">
          <mxGeometry x="290" y="230" width="160" height="160" as="geometry" />
        </mxCell>
      </root>
    </mxGraphModel>
  </diagram>
</mxfile>
